<svg xmlns="http://www.w3.org/2000/svg" width="116" height="37" viewBox="0 0 116 37">
    <title>Contoso</title>
    <desc>Logotipo de Contoso</desc>
    <g fill-rule="evenodd">
        <path d="M44 15.57c-.213.343-.575.74-1.086 1.19-.511.45-1.108.89-1.789 1.32-.681.428-1.437.836-2.268 1.222a19.06 19.06 0 0 1-2.524.965c-.17 1.802-.553 3.69-1.15 5.664-.596 1.973-1.32 3.786-2.172 5.438-.852 1.652-1.789 3.003-2.811 4.054C29.178 36.474 28.156 37 27.133 37c-.426 0-.99-.129-1.693-.386-.703-.258-1.384-.665-2.044-1.223a7.847 7.847 0 0 1-1.693-2.027C21.234 32.57 21 31.616 21 30.5c0-1.116.128-2.381.383-3.797a35.812 35.812 0 0 1 1.055-4.28c.447-1.437 1-2.842 1.66-4.215.66-1.373 1.374-2.596 2.14-3.668.768-1.073 1.587-1.931 2.46-2.575.874-.643 1.779-.965 2.716-.965.468 0 .926.16 1.373.483.448.321.884.729 1.31 1.222.426.494.82 1.03 1.182 1.61.362.579.692 1.104.99 1.576l.192 1.48a17.347 17.347 0 0 0 3.29-.579c1.087-.3 2.503-.708 4.249-1.223zm-12.458 5.405c-.64-.128-.959-.772-.959-1.93 0-.472.054-1.009.16-1.61.107-.6.224-1.222.351-1.866-.596.73-1.203 1.792-1.82 3.186a40.595 40.595 0 0 0-1.662 4.473A53.465 53.465 0 0 0 26.4 27.86c-.32 1.502-.48 2.703-.48 3.604 0 1.03.213 1.545.64 1.545.425 0 .926-.354 1.5-1.062.576-.708 1.14-1.641 1.694-2.8a40.597 40.597 0 0 0 1.597-3.893 32.196 32.196 0 0 0 1.214-4.344 3.077 3.077 0 0 1-.607.064h-.415z"/>
        <path d="M24.995 19.588c.041.47-.158 1.238-.598 2.305-.44 1.067-1.059 2.24-1.855 3.52a45.278 45.278 0 0 1-2.799 3.97 34.002 34.002 0 0 1-3.396 3.744c-1.195 1.131-2.39 2.06-3.585 2.785C11.567 36.637 10.445 37 9.397 37c-.88 0-1.803-.181-2.767-.544a9.695 9.695 0 0 1-2.736-1.6 11.034 11.034 0 0 1-2.264-2.561C.98 31.292.53 30.151.278 28.87c-.336-1.536-.367-3.307-.095-5.313.273-2.006.786-4.086 1.541-6.241a42.395 42.395 0 0 1 2.83-6.338c1.132-2.07 2.37-3.915 3.711-5.537 1.342-1.622 2.757-2.934 4.245-3.937C14 .501 15.477 0 16.944 0c.63 0 1.373.181 2.233.544.86.363 1.688.843 2.484 1.44a10.29 10.29 0 0 1 2.044 2.017c.566.747.85 1.504.85 2.272 0 1.025-.347 2.252-1.038 3.681A25.507 25.507 0 0 1 21 14.083c-.986 1.323-2.002 2.443-3.05 3.36-1.049.918-1.93 1.377-2.642 1.377.42-.597.87-1.376 1.352-2.336a47.87 47.87 0 0 0 1.415-3.105c.462-1.11.88-2.23 1.258-3.36.378-1.132.65-2.145.818-3.041.167-.897.199-1.633.094-2.209-.105-.576-.409-.864-.912-.864-1.467 0-2.987.725-4.56 2.176-1.572 1.451-3.04 3.276-4.402 5.473a42.408 42.408 0 0 0-3.522 7.138c-.985 2.56-1.625 4.94-1.918 7.138-.294 2.197-.158 4.022.408 5.473.567 1.45 1.71 2.176 3.428 2.176.923 0 2.097-.49 3.522-1.472 1.426-.982 2.914-2.187 4.466-3.617a76.303 76.303 0 0 0 4.528-4.545 96.693 96.693 0 0 0 3.71-4.257zM52.11 11.466c.17 0 .446.085.828.255.383.17.797.393 1.243.669.447.276.86.584 1.243.924.383.34.66.7.83 1.083-.34.595-.776 1.476-1.308 2.645a74.371 74.371 0 0 0-1.657 3.983 75.178 75.178 0 0 0-1.626 4.683 34.992 34.992 0 0 0-1.148 4.812 36.36 36.36 0 0 0 2.072-2.613 56.683 56.683 0 0 0 2.104-3.09 61.332 61.332 0 0 0 1.785-2.996c.532-.956.903-1.731 1.116-2.326.34.043.468.457.382 1.243-.085.786-.318 1.742-.7 2.867a47.525 47.525 0 0 1-1.435 3.665 41.4 41.4 0 0 1-1.785 3.632c-.617 1.105-1.222 2.029-1.817 2.772-.595.743-1.084 1.115-1.467 1.115-.382 0-.85-.138-1.402-.414a10.422 10.422 0 0 1-1.594-.988 8.015 8.015 0 0 1-1.307-1.21c-.361-.425-.542-.786-.542-1.084 0-.68.096-1.487.287-2.421a44.202 44.202 0 0 1 1.785-6.245 726.55 726.55 0 0 0 1.18-3.25c-.765 1.104-1.594 2.464-2.487 4.078a107.298 107.298 0 0 0-2.55 4.907 88.801 88.801 0 0 0-2.104 4.62c-.595 1.423-.977 2.496-1.147 3.218-.34 0-.733-.17-1.18-.51a8.487 8.487 0 0 1-1.275-1.21 8.267 8.267 0 0 1-1.02-1.466c-.276-.51-.414-.935-.414-1.275 0-1.104.128-2.4.383-3.887s.584-3.027.988-4.62c.403-1.593.85-3.176 1.338-4.748a86.18 86.18 0 0 1 1.403-4.174c.446-1.21.86-2.198 1.243-2.963.383-.765.68-1.147.893-1.147.382 0 .807.074 1.275.223.467.149.914.319 1.339.51.425.191.796.403 1.115.637.319.234.542.436.67.605-.255.383-.585.999-.989 1.849-.403.85-.839 1.88-1.306 3.09a94.445 94.445 0 0 0-1.467 4.11 65.73 65.73 0 0 0-1.402 4.844c.765-1.7 1.636-3.41 2.614-5.13a63.753 63.753 0 0 1 2.868-4.62c.935-1.36 1.785-2.475 2.55-3.346.766-.87 1.297-1.306 1.594-1.306z"/>
        <path d="M54.753 8.84c-.939-.083-1.663-.376-2.173-.878-.51-.501-.684-.857-.52-1.066.816-.042 1.877-.115 3.183-.22 1.306-.104 3.285-.198 5.938-.282.612-1.63 1.163-2.937 1.653-3.92.49-.983.837-1.474 1.04-1.474.327 0 .715.073 1.164.22.449.146.887.334 1.316.564.429.23.816.46 1.163.69.347.23.561.429.643.596-.204.209-.46.575-.765 1.098-.306.522-.643 1.202-1.01 2.038 2.244-.042 4.224-.052 5.938-.031 1.714.02 2.816.136 3.306.345.204.083.398.272.581.564.184.293.337.607.46.941.122.335.214.659.275.972.061.314.071.533.03.659-.408-.126-1-.24-1.775-.345a29.567 29.567 0 0 0-2.724-.22c-1.04-.041-2.184-.083-3.428-.125-1.245-.042-2.5-.063-3.765-.063a169.89 169.89 0 0 0-1.806 5.018 297.929 297.929 0 0 0-1.867 5.614 162.573 162.573 0 0 0-1.715 5.676c-.53 1.882-.98 3.597-1.346 5.144a36.066 36.066 0 0 0 2.203-2.666 87.37 87.37 0 0 0 2.204-3.042 55.158 55.158 0 0 0 1.837-2.823c.53-.878.898-1.589 1.102-2.132.408.083.54.533.398 1.348-.143.816-.47 1.83-.98 3.042a51.538 51.538 0 0 1-1.867 3.92 49.807 49.807 0 0 1-2.234 3.858c-.755 1.171-1.46 2.154-2.112 2.948-.653.795-1.143 1.192-1.47 1.192-.163 0-.449-.157-.857-.47a7.5 7.5 0 0 1-1.224-1.224 11.168 11.168 0 0 1-1.071-1.568c-.307-.543-.44-1.024-.398-1.442.163-1.506.459-3.21.887-5.112.429-1.903.929-3.847 1.5-5.834a152.537 152.537 0 0 1 1.837-5.927A192.908 192.908 0 0 1 60.2 8.966h-3.734c-.367 0-.673-.01-.918-.031-.245-.021-.51-.053-.796-.094z"/>
        <path d="M86 15.57c-.213.343-.575.74-1.086 1.19-.511.45-1.108.89-1.789 1.32-.681.428-1.437.836-2.268 1.222a19.06 19.06 0 0 1-2.524.965c-.17 1.802-.553 3.69-1.15 5.664-.596 1.973-1.32 3.786-2.172 5.438-.852 1.652-1.789 3.003-2.811 4.054C71.178 36.474 70.156 37 69.133 37c-.426 0-.99-.129-1.693-.386-.703-.258-1.384-.665-2.044-1.223a7.847 7.847 0 0 1-1.693-2.027C63.234 32.57 63 31.616 63 30.5c0-1.116.128-2.381.383-3.797a35.812 35.812 0 0 1 1.054-4.28c.448-1.437 1.001-2.842 1.662-4.215.66-1.373 1.373-2.596 2.14-3.668.767-1.073 1.586-1.931 2.46-2.575.873-.643 1.778-.965 2.715-.965.468 0 .926.16 1.373.483.448.321.884.729 1.31 1.222.426.494.82 1.03 1.182 1.61.362.579.692 1.104.99 1.576l.192 1.48a17.347 17.347 0 0 0 3.29-.579c1.087-.3 2.503-.708 4.249-1.223zm-12.458 5.405c-.64-.128-.959-.772-.959-1.93 0-.472.054-1.009.16-1.61.107-.6.224-1.222.351-1.866-.596.73-1.203 1.792-1.82 3.186a40.595 40.595 0 0 0-1.662 4.473A53.465 53.465 0 0 0 68.4 27.86c-.32 1.502-.48 2.703-.48 3.604 0 1.03.213 1.545.64 1.545.425 0 .926-.354 1.5-1.062.576-.708 1.14-1.641 1.694-2.8a40.597 40.597 0 0 0 1.597-3.893 32.196 32.196 0 0 0 1.214-4.344 3.077 3.077 0 0 1-.607.064h-.415z"/>
        <path d="M101 13.932c-.717.718-1.78 1.627-3.193 2.727a18.417 18.417 0 0 1-4.774 2.663 17.27 17.27 0 0 1-1.454 2.251c-.506.655-.97.983-1.391.983-.38-.169-.664-.528-.854-1.078a9.113 9.113 0 0 1-.41-1.776 6.977 6.977 0 0 1-.032-1.743c.063-.529.158-.857.284-.983.422 0 .99-.064 1.707-.19.169-.677.243-1.28.222-1.808-.021-.528-.074-.92-.158-1.173-.338 0-.706.127-1.107.38-.4.254-.8.582-1.201.983a6.07 6.07 0 0 0-1.044 1.427 5.126 5.126 0 0 0-.569 1.712c-.126.804.01 1.68.411 2.632.4.951.864 1.902 1.391 2.854a51.483 51.483 0 0 1 1.455 2.822c.442.93.643 1.754.6 2.473-.042.507-.242 1.152-.6 1.934a10.384 10.384 0 0 1-1.455 2.283 8.79 8.79 0 0 1-2.213 1.902 5.406 5.406 0 0 1-2.877.793c-.8 0-1.528-.412-2.18-1.237-.654-.824-1.192-1.796-1.613-2.917a15.09 15.09 0 0 1-.854-3.424c-.147-1.163-.116-2.061.095-2.695.421 1.184.98 2.198 1.676 3.044.695.845 1.39 1.522 2.086 2.029.696.507 1.328.835 1.897.983.569.148.959.116 1.17-.095.337-.38.316-1.036-.064-1.966-.379-.93-.864-2.019-1.454-3.266a50.567 50.567 0 0 1-1.675-3.995c-.527-1.416-.77-2.78-.727-4.09.042-1.395.326-2.61.853-3.647.527-1.035 1.128-1.902 1.802-2.6.675-.697 1.36-1.226 2.055-1.585.696-.36 1.254-.539 1.676-.539.421 0 .99.18 1.707.539.716.36 1.422.793 2.118 1.3a11.943 11.943 0 0 1 1.77 1.554c.485.528.728.961.728 1.3 0 .253-.106.697-.317 1.331.717-.169 1.423-.348 2.119-.539.695-.19 1.338-.38 1.928-.57.59-.19 1.107-.37 1.55-.54.442-.168.747-.316.916-.443z"/>
        <path d="M116 15.57c-.213.343-.575.74-1.086 1.19-.511.45-1.108.89-1.789 1.32-.681.428-1.437.836-2.268 1.222a19.06 19.06 0 0 1-2.524.965c-.17 1.802-.553 3.69-1.15 5.664-.596 1.973-1.32 3.786-2.172 5.438-.852 1.652-1.789 3.003-2.811 4.054-1.022 1.051-2.044 1.577-3.067 1.577-.426 0-.99-.129-1.693-.386-.703-.258-1.384-.665-2.044-1.223a7.847 7.847 0 0 1-1.693-2.027C93.234 32.57 93 31.616 93 30.5c0-1.116.128-2.381.383-3.797a35.812 35.812 0 0 1 1.055-4.28c.447-1.437 1-2.842 1.66-4.215.66-1.373 1.374-2.596 2.14-3.668.768-1.073 1.587-1.931 2.46-2.575.874-.643 1.779-.965 2.716-.965.468 0 .926.16 1.373.483.448.321.884.729 1.31 1.222.426.494.82 1.03 1.182 1.61.362.579.692 1.104.99 1.576l.192 1.48a17.347 17.347 0 0 0 3.29-.579c1.087-.3 2.503-.708 4.249-1.223zm-12.458 5.405c-.64-.128-.959-.772-.959-1.93 0-.472.054-1.009.16-1.61.107-.6.224-1.222.351-1.866-.596.73-1.203 1.792-1.82 3.186a40.595 40.595 0 0 0-1.662 4.473A53.465 53.465 0 0 0 98.4 27.86c-.32 1.502-.48 2.703-.48 3.604 0 1.03.213 1.545.64 1.545.425 0 .926-.354 1.5-1.062.576-.708 1.14-1.641 1.694-2.8a40.597 40.597 0 0 0 1.597-3.893 32.196 32.196 0 0 0 1.214-4.344 3.077 3.077 0 0 1-.607.064h-.415z"/>
    </g>
</svg>
